<?xml version="1.0" encoding="utf-8"?>
<!-- Generator: Adobe Illustrator 16.0.4, SVG Export Plug-In . SVG Version: 6.00 Build 0)  -->
<!DOCTYPE svg PUBLIC "-//W3C//DTD SVG 1.1//EN" "http://www.w3.org/Graphics/SVG/1.1/DTD/svg11.dtd">
<svg version="1.1" id="Layer_1" xmlns="http://www.w3.org/2000/svg" xmlns:xlink="http://www.w3.org/1999/xlink" x="0px" y="0px"
	 width="194px" height="36px" viewBox="0 0 194 36" enable-background="new 0 0 194 36" xml:space="preserve">
<g>
	<g>
		<polyline fill="#4B286D" points="109.182,9.695 109.182,5.924 95.738,5.924 95.738,25.314 109.182,25.314 109.182,21.381 
			101.188,21.381 101.188,17.084 107.836,17.084 107.836,13.32 101.188,13.32 101.188,9.695 109.182,9.695 		"/>
		<polyline fill="#4B286D" points="132.896,21.487 124.494,21.487 124.494,5.924 118.984,5.924 118.984,25.314 132.896,25.314 
			132.896,21.487 		"/>
		<path fill="#4B286D" d="M177.273,13.314c-3.721-0.84-5.021-0.933-5.021-2.413c0-1.376,1.836-1.801,2.902-1.801
			c1.719,0,3.736,0.397,5.799,1.46l1.5-3.569c-2.109-1.155-4.822-1.633-7.434-1.633c-5.133,0-8.57,2.079-8.713,6.135
			c-0.148,3.695,2.857,5.081,5.623,5.654c2.666,0.549,5.367,1.021,5.424,2.604c0.051,1.461-1.266,2.084-3.74,2.084
			c-2.297,0-4.43-0.736-6.609-1.647l-1.271,3.877c2.504,1.063,5.05,1.651,7.672,1.651c3.644,0,6.3-0.566,8.257-2.403
			c1.358-1.263,1.803-2.787,1.803-4.237C183.465,16.009,181.559,14.28,177.273,13.314"/>
		<polyline fill="#4B286D" points="87.924,9.752 87.924,5.924 71.01,5.924 71.01,9.752 76.725,9.752 76.725,25.314 82.203,25.314 
			82.203,9.752 87.924,9.752 		"/>
		<path fill="#4B286D" d="M151.691,5.924v12.319c0,0.967,0,1.233-0.062,1.605c-0.172,1.175-1.312,1.855-3.129,1.881
			c-1.346-0.023-2.328-0.418-2.787-1.12c-0.229-0.362-0.342-1.011-0.342-2.046V5.924h-5.713V19.29c0,1.849,0.248,2.686,1.08,3.74
			c1.381,1.729,4.068,2.633,7.773,2.633c0.035,0,0.076,0,0.115,0c0.023,0,0.057,0,0.084,0c4.959,0,7.516-1.936,8.258-3.74
			c0.371-0.879,0.398-1.295,0.398-3.062V5.925L151.691,5.924"/>
		<g>
			<path fill="#4B286D" d="M73.593,0.613L41.545,6.994v2.232l0.104-0.022c21.169-5.146,31.942-8.242,32.029-8.265
				c0.119-0.031,0.162-0.124,0.146-0.203C73.809,0.654,73.722,0.59,73.593,0.613"/>
			<path fill="#71BF45" d="M46.697,2.398c0.495-0.318,0.637-0.123,0.492,0.239c-0.236,0.575-1.321,4.042-9.39,10.666
				c-2.104,1.729-3.603,2.695-6.633,4.489C36.131,10.832,43.377,4.554,46.697,2.398 M47.536,0.004
				c-1.559,0.087-4.441,2.394-6.024,3.766c-6.307,5.457-10.994,10.47-14.403,15.721c-7.106,3.807-16.165,7.717-25.162,10.775
				L1.73,30.34L0,34.997l0.989-0.379c5.722-2.181,15.272-6.273,23.931-10.828c-0.488,1.301-0.734,2.494-0.734,3.588
				c0,0.812,0.137,1.564,0.409,2.256c0.546,1.365,1.617,2.404,3.105,3c2.215,0.883,5.239,0.9,8.688-0.145
				c8.813-2.674,19.265-10.871,21.54-12.501l0.086-0.062c0.088-0.063,0.097-0.164,0.058-0.229c-0.049-0.076-0.152-0.095-0.24-0.045
				l0,0l0,0l-0.112,0.069c-2.442,1.46-14.309,8.508-22.021,10.577c-3.929,1.054-6.921,0.478-8.053-1.104
				c-0.393-0.536-0.58-1.223-0.58-2.021c0-1.557,0.73-3.531,2.141-5.732c1.298-0.738,2.508-1.462,3.6-2.146
				C40.33,15.069,49,6.853,49.368,1.831c0.002-0.033,0.002-0.072,0.002-0.112c0-0.434-0.188-0.879-0.515-1.21
				C48.503,0.153,48.039-0.029,47.536,0.004z"/>
		</g>
		<polyline fill="#4B286D" points="41.441,7.018 7.725,14.264 6.421,17.771 41.545,9.228 41.601,9.216 41.601,6.981 41.441,7.018 		
			"/>
	</g>
	<g>
		<path fill="#4B286D" d="M186.244,5.892c1.023,0,1.883,0.808,1.883,1.867c0,1.08-0.857,1.888-1.883,1.888
			c-1.029,0-1.895-0.809-1.895-1.888C184.352,6.698,185.215,5.892,186.244,5.892z M186.244,9.37c0.871,0,1.541-0.692,1.541-1.611
			c0-0.899-0.67-1.593-1.541-1.593c-0.879,0-1.551,0.693-1.551,1.593C184.693,8.678,185.365,9.37,186.244,9.37z M185.512,6.668
			h0.852c0.521,0,0.768,0.207,0.768,0.628c0,0.396-0.252,0.562-0.578,0.598l0.629,0.968h-0.367l-0.598-0.942h-0.359v0.942h-0.344
			L185.512,6.668L185.512,6.668z M185.854,7.643h0.355c0.303,0,0.578-0.016,0.578-0.361c0-0.291-0.252-0.336-0.482-0.336h-0.449
			L185.854,7.643L185.854,7.643z"/>
	</g>
</g>
</svg>
