<?xml version="1.0" standalone="no"?><!DOCTYPE svg PUBLIC "-//W3C//DTD SVG 1.1//EN" "http://www.w3.org/Graphics/SVG/1.1/DTD/svg11.dtd"><svg width="100%" height="100%" viewBox="0 0 120 75" version="1.1" xmlns="http://www.w3.org/2000/svg" xmlns:xlink="http://www.w3.org/1999/xlink" xml:space="preserve" style="fill-rule:evenodd;clip-rule:evenodd;stroke-linejoin:round;stroke-miterlimit:1.41421;"><g id="Layer 1"><path d="M0.962,14.55l26.875,9.047l0.182,10.494l-27.057,-8.683l0,-10.858Z" style="fill:#fff;"/><path d="M0.962,27.577l26.875,9.047l0.182,10.496l-27.057,-8.687l0,-10.856l0,0Z" style="fill:#fff;"/><path d="M91.87,23.96l26.876,9.045l0.181,10.496l-27.057,-8.685l0,-10.856l0,0Z" style="fill:#fff;"/><path d="M91.87,36.988l26.876,9.046l0.181,10.493l-27.057,-8.684l0,-10.855l0,0Z" style="fill:#fff;"/><path d="M48.22,17.265c3.187,0 5.771,2.592 5.771,5.791l0,26.596c0,3.199 -2.584,5.791 -5.771,5.791c-3.188,0 -5.772,-2.592 -5.772,-5.791l0,-26.596c0,-3.199 2.584,-5.791 5.772,-5.791" style="fill:#fff;"/><path d="M60.485,17.265c3.188,0 5.772,2.592 5.772,5.791l0,26.596c0,3.199 -2.584,5.791 -5.772,5.791c-3.187,0 -5.771,-2.592 -5.771,-5.791l0,-26.596c0,-3.199 2.584,-5.791 5.771,-5.791" style="fill:#fff;"/><path d="M72.751,17.265c3.187,0 5.771,2.592 5.771,5.791l0,26.596c0,3.199 -2.584,5.791 -5.771,5.791c-3.188,0 -5.772,-2.592 -5.772,-5.791l0,-26.596c0,-3.199 2.584,-5.791 5.772,-5.791" style="fill:#fff;"/><path d="M35.413,14.732c1.565,-2.172 5.411,-17.492 5.411,-14.295l0.181,49.215c0,3.199 -2.584,5.791 -5.773,5.791c-3.186,0 -5.77,-2.592 -5.77,-5.791l0,-26.596c0,-3.199 4.085,-5.732 5.951,-8.324" style="fill:#fff;"/><path d="M84.835,57.388c-1.564,2.17 -5.41,17.49 -5.41,14.293l-0.182,-49.215c0,-3.197 2.584,-5.789 5.774,-5.789c3.187,0 5.772,2.592 5.772,5.789l0,26.6c0,3.195 -4.085,5.73 -5.954,8.322" style="fill:#fff;"/></g></svg>