<?xml version="1.0" encoding="UTF-8" standalone="no"?><!DOCTYPE svg PUBLIC "-//W3C//DTD SVG 1.1//EN" "http://www.w3.org/Graphics/SVG/1.1/DTD/svg11.dtd"><svg width="100%" height="100%" viewBox="0 0 330 75" version="1.1" xmlns="http://www.w3.org/2000/svg" xmlns:xlink="http://www.w3.org/1999/xlink" xml:space="preserve" style="fill-rule:evenodd;clip-rule:evenodd;stroke-linejoin:round;stroke-miterlimit:1.41421;"><g id="Layer-1"><g><path d="M18.496,28.836c0,-3.4 0,-5.44 0,-8.84c0,-2.856 -0.476,-5.168 -2.516,-7.072c-2.04,-1.836 -4.828,-2.38 -7.14,-2.38c-1.496,0 -2.584,0 -4.08,0c-0.544,0 -1.02,-0.068 -1.564,0.408c-0.408,0.408 -0.476,1.02 -0.476,1.7c0,16.184 0,27.812 0,44.54c0,0.952 0.272,0.952 2.04,0.952c1.836,0 2.312,0 2.312,-1.088c0,-5.984 0,-12.444 0,-17.204c0,-0.952 0.476,-1.428 1.292,-1.428c2.108,0 5.372,-0.34 7.684,-2.924c2.448,-2.856 2.448,-5.1 2.448,-6.664Zm-4.42,0.068c0,1.428 0,2.108 -1.36,3.604c-1.224,1.292 -2.72,1.428 -3.536,1.428c-0.612,0 -1.224,0.068 -1.564,-0.136c-0.612,-0.34 -0.476,-1.224 -0.476,-1.972c0,-5.644 0,-9.384 0,-15.164c0,-0.408 0,-0.748 0.204,-1.156c0.272,-0.476 1.36,-0.476 2.176,-0.476c1.496,0 2.38,0.34 3.128,1.02c1.156,1.224 1.428,2.38 1.428,3.944c0,3.332 0,5.576 0,8.908Z" style="fill:#fff;fill-rule:nonzero;"/><g><path d="M36.944,57.396c0,-14.824 0,-29.172 0,-31.28c0,-0.68 -0.272,-0.816 -2.312,-0.816c-1.632,0 -2.108,-0.068 -2.108,0.408c0,1.224 -0.204,1.224 -0.748,0.68c-1.02,-1.02 -2.04,-1.02 -2.72,-1.02c-4.42,0 -7.888,3.196 -7.888,8.296c0,5.644 0,10.404 0,15.98c0,5.508 3.4,8.5 7.888,8.5c2.652,0 2.788,-1.836 3.196,-1.836c0.612,0 0.408,0.68 0.408,1.224c0,0.612 0.476,0.612 2.04,0.612c2.04,0 2.244,0 2.244,-0.748Zm-4.488,-7.956c0,2.72 -1.292,4.148 -3.4,4.148c-2.04,0 -3.468,-1.292 -3.468,-4.148c0,-5.236 0,-10.54 0,-15.776c0,-1.904 1.428,-4.08 3.468,-4.08c1.972,0 3.4,2.176 3.4,4.08c0,5.304 0,10.472 0,15.776Z" style="fill:#fff;fill-rule:nonzero;"/><path d="M56.8,49.644c0,-0.408 -0.408,-0.476 -2.244,-0.476c-1.768,0 -2.244,0 -2.244,0.272c0,1.768 -0.612,4.148 -3.4,4.148c-2.652,0 -3.468,-2.108 -3.468,-4.148c0,-5.168 0,-10.608 0,-15.776c0,-1.904 1.428,-4.08 3.468,-4.08c1.904,0 3.4,1.836 3.4,4.556c0,0.34 0.68,0.408 2.38,0.408c1.836,0 2.108,-0.136 2.108,-0.612c0,-5.168 -3.4,-8.568 -7.888,-8.568c-4.624,0 -7.888,3.264 -7.888,8.5c0,5.508 0,10.268 0,15.776c0,4.556 2.584,8.568 7.888,8.568c5.576,0 7.888,-3.672 7.888,-8.568Z" style="fill:#fff;fill-rule:nonzero;"/></g><path d="M76.588,57.328c-2.516,-6.324 -3.876,-9.86 -6.528,-16.524c-0.272,-0.612 -0.408,-1.496 -0.408,-1.836c0,-0.476 0.34,-1.156 0.612,-1.768c1.972,-4.284 3.128,-6.596 5.168,-11.016c0.34,-0.68 -0.952,-0.68 -2.584,-0.68c-1.564,0 -2.176,-0.136 -2.516,0.68c-1.428,3.128 -2.312,5.372 -3.876,8.772c-0.272,0.544 -0.476,1.088 -0.748,1.428c-0.272,0.34 -0.476,-0.204 -0.476,-1.02c0,-7.752 0,-15.3 0,-23.732c0,-1.02 -1.02,-1.02 -2.312,-1.02c-1.088,0 -2.04,0.068 -2.04,0.952c0,16.32 0,28.424 0,45.492c0,0.952 0.272,1.02 2.04,1.02c2.04,0 2.312,0 2.312,-1.156c0,-3.944 0,-7.888 0,-11.696c0,-0.884 0.136,-1.224 0.544,-1.564c0.408,-0.34 0.884,0.204 1.224,1.156c1.768,4.624 2.856,7.548 4.692,12.376c0.34,0.884 0.612,0.952 2.788,0.952c1.564,0 2.244,-0.408 2.108,-0.816Z" style="fill:#fff;fill-rule:nonzero;"/><path d="M93.704,49.644c0,-0.544 -0.34,-0.612 -2.108,-0.612c-2.04,0 -2.38,0.136 -2.38,0.408c0,2.72 -1.292,4.148 -3.4,4.148c-2.04,0 -3.468,-1.428 -3.468,-4.148c0,-1.836 0,-3.332 0,-5.1c0,-0.816 0.408,-1.224 0.748,-1.224c3.808,0 4.624,0 9.316,0c1.36,0 1.292,-0.612 1.292,-1.088c0,-2.38 0,-5.304 0,-8.364c0,-4.76 -3.4,-8.296 -7.888,-8.296c-4.42,0 -7.888,3.196 -7.888,8.296c0,5.644 0,10.336 0,15.98c0,5.44 3.4,8.5 7.888,8.5c4.556,0 7.888,-2.448 7.888,-8.5Zm-4.488,-11.628c0,0.952 -0.68,0.952 -3.604,0.952c-2.72,0 -3.264,0 -3.264,-0.952c0,-1.224 0,-2.788 0,-4.352c0,-1.972 1.428,-4.08 3.468,-4.08c1.972,0 3.4,1.972 3.4,4.08c0,1.564 0,3.128 0,4.352Z" style="fill:#fff;fill-rule:nonzero;"/><path d="M106.682,56.036c0,-1.36 0,-2.108 -0.34,-2.108c-2.04,0 -3.468,-1.02 -3.468,-2.72c0,-6.12 0,-12.92 0,-19.788c0,-1.224 0.34,-1.564 2.788,-1.564c0.68,0 0.748,-0.272 0.748,-1.904c0,-1.36 -0.204,-1.768 -1.02,-1.768c-2.244,0 -2.516,-0.204 -2.516,-1.292c0,-1.224 0,-2.312 0,-3.332c0,-0.952 -0.544,-0.952 -2.38,-0.952c-1.632,0 -2.04,0 -2.04,0.816c0,1.088 0,2.244 0,3.468c0,1.088 -0.068,1.496 -1.972,1.496c-0.612,0 -0.748,0.408 -0.748,1.768c0,0.952 0.136,1.564 0.816,1.564c1.632,0 1.904,0.544 1.904,1.7c0,6.868 0,13.396 0,19.788c0,3.944 2.72,6.936 7.888,6.936c0.408,0 0.34,-0.612 0.34,-2.108Z" style="fill:#fff;fill-rule:nonzero;"/><path d="M124.566,12.584c0,-1.36 0,-2.04 -0.884,-2.04c-3.74,0 -7.956,0 -11.628,0c-0.68,0 -0.816,0 -1.292,0.544c-0.408,0.476 -0.34,0.748 -0.34,1.632c0,16.32 0,28.152 0,44.472c0,0.884 0.68,0.884 2.108,0.884c1.564,0 2.312,0.068 2.312,-0.952c0,-5.372 0,-11.832 0,-18.36c0,-0.884 -0.136,-2.04 0.476,-2.448c0.272,-0.204 1.02,-0.204 1.7,-0.204c1.088,-0.068 2.924,0 3.468,0c1.088,0 1.224,-0.544 1.224,-2.04c0,-1.428 -0.136,-2.04 -1.224,-2.04c-0.612,0 -2.516,0.068 -3.604,-0.068c-0.544,-0.068 -1.156,0.068 -1.564,-0.34c-0.408,-0.408 -0.34,-1.088 -0.34,-1.7c0,-4.964 0,-7.888 0,-12.852c0,-0.884 -0.136,-2.04 0.476,-2.516c0.34,-0.136 0.884,-0.136 1.428,-0.136c1.36,0 5.1,0 6.392,0c1.156,0 1.292,-0.408 1.292,-1.836Z" style="fill:#fff;fill-rule:nonzero;"/><g><path d="M141.062,49.644c0,-0.544 -0.34,-0.612 -2.108,-0.612c-2.04,0 -2.38,0.136 -2.38,0.408c0,2.72 -1.292,4.148 -3.4,4.148c-2.04,0 -3.468,-1.428 -3.468,-4.148c0,-1.836 0,-3.332 0,-5.1c0,-0.816 0.408,-1.224 0.748,-1.224c3.808,0 4.624,0 9.316,0c1.36,0 1.292,-0.612 1.292,-1.088c0,-2.38 0,-5.304 0,-8.364c0,-4.76 -3.4,-8.296 -7.888,-8.296c-4.42,0 -7.888,3.196 -7.888,8.296c0,5.644 0,10.336 0,15.98c0,5.44 3.4,8.5 7.888,8.5c4.556,0 7.888,-2.448 7.888,-8.5Zm-4.488,-11.628c0,0.952 -0.68,0.952 -3.604,0.952c-2.72,0 -3.264,0 -3.264,-0.952c0,-1.224 0,-2.788 0,-4.352c0,-1.972 1.428,-4.08 3.468,-4.08c1.972,0 3.4,1.972 3.4,4.08c0,1.564 0,3.128 0,4.352Z" style="fill:#fff;fill-rule:nonzero;"/><path d="M161.258,57.532c0,-7.684 0,-15.232 0,-23.392c0,-5.984 -2.312,-8.636 -6.8,-8.636c-1.836,0 -3.468,1.36 -4.42,2.992c-0.408,0.748 -0.408,-0.068 -0.408,-2.448c0,-0.476 -0.136,-0.544 -1.972,-0.544c-1.972,0 -2.176,0.068 -2.176,0.544c0,7.684 0,21.624 0,31.416c0,0.612 0.34,0.68 2.108,0.68c1.972,0 2.312,-0.068 2.312,-0.68c0,-6.868 0,-16.456 0,-23.664c0,-2.584 2.04,-4.08 4.556,-4.08c1.768,0 2.38,2.244 2.38,4.42c0,8.432 0,15.844 0,23.46c0,0.476 0.476,0.544 2.38,0.544c1.7,0 2.04,-0.068 2.04,-0.612Z" style="fill:#fff;fill-rule:nonzero;"/></g><path d="M181.114,49.644c0,-0.408 -0.408,-0.476 -2.244,-0.476c-1.768,0 -2.244,0 -2.244,0.272c0,1.768 -0.612,4.148 -3.4,4.148c-2.652,0 -3.468,-2.108 -3.468,-4.148c0,-5.168 0,-10.608 0,-15.776c0,-1.904 1.428,-4.08 3.468,-4.08c1.904,0 3.4,1.836 3.4,4.556c0,0.34 0.68,0.408 2.38,0.408c1.836,0 2.108,-0.136 2.108,-0.612c0,-5.168 -3.4,-8.568 -7.888,-8.568c-4.624,0 -7.888,3.264 -7.888,8.5c0,5.508 0,10.268 0,15.776c0,4.556 2.584,8.568 7.888,8.568c5.576,0 7.888,-3.672 7.888,-8.568Z" style="fill:#fff;fill-rule:nonzero;"/><path d="M200.28,49.644c0,-0.544 -0.34,-0.612 -2.108,-0.612c-2.04,0 -2.38,0.136 -2.38,0.408c0,2.72 -1.292,4.148 -3.4,4.148c-2.04,0 -3.468,-1.428 -3.468,-4.148c0,-1.836 0,-3.332 0,-5.1c0,-0.816 0.408,-1.224 0.748,-1.224c3.808,0 4.624,0 9.316,0c1.36,0 1.292,-0.612 1.292,-1.088c0,-2.38 0,-5.304 0,-8.364c0,-4.76 -3.4,-8.296 -7.888,-8.296c-4.42,0 -7.888,3.196 -7.888,8.296c0,5.644 0,10.336 0,15.98c0,5.44 3.4,8.5 7.888,8.5c4.556,0 7.888,-2.448 7.888,-8.5Zm-4.488,-11.628c0,0.952 -0.68,0.952 -3.604,0.952c-2.72,0 -3.264,0 -3.264,-0.952c0,-1.224 0,-2.788 0,-4.352c0,-1.972 1.428,-4.08 3.468,-4.08c1.972,0 3.4,1.972 3.4,4.08c0,1.564 0,3.128 0,4.352Z" style="fill:#fff;fill-rule:nonzero;"/></g><path d="M210.962,14.55l26.875,9.047l0.182,10.494l-27.057,-8.683l0,-10.858Z" style="fill:#fff;"/><path d="M210.962,27.577l26.875,9.047l0.182,10.496l-27.057,-8.687l0,-10.856l0,0Z" style="fill:#fff;"/><path d="M301.87,23.96l26.876,9.045l0.181,10.496l-27.057,-8.685l0,-10.856l0,0Z" style="fill:#fff;"/><path d="M301.87,36.988l26.876,9.046l0.181,10.493l-27.057,-8.684l0,-10.855l0,0Z" style="fill:#fff;"/><path d="M258.22,17.265c3.187,0 5.771,2.592 5.771,5.791l0,26.596c0,3.199 -2.584,5.791 -5.771,5.791c-3.188,0 -5.772,-2.592 -5.772,-5.791l0,-26.596c0,-3.199 2.584,-5.791 5.772,-5.791" style="fill:#fff;"/><path d="M270.485,17.265c3.188,0 5.772,2.592 5.772,5.791l0,26.596c0,3.199 -2.584,5.791 -5.772,5.791c-3.187,0 -5.771,-2.592 -5.771,-5.791l0,-26.596c0,-3.199 2.584,-5.791 5.771,-5.791" style="fill:#fff;"/><path d="M282.751,17.265c3.187,0 5.771,2.592 5.771,5.791l0,26.596c0,3.199 -2.584,5.791 -5.771,5.791c-3.188,0 -5.772,-2.592 -5.772,-5.791l0,-26.596c0,-3.199 2.584,-5.791 5.772,-5.791" style="fill:#fff;"/><path d="M245.413,14.732c1.565,-2.172 5.411,-17.492 5.411,-14.295l0.181,49.215c0,3.199 -2.584,5.791 -5.773,5.791c-3.186,0 -5.77,-2.592 -5.77,-5.791l0,-26.596c0,-3.199 4.085,-5.732 5.951,-8.324" style="fill:#fff;"/><path d="M294.835,57.388c-1.564,2.17 -5.41,17.49 -5.41,14.293l-0.182,-49.215c0,-3.197 2.584,-5.789 5.774,-5.789c3.187,0 5.772,2.592 5.772,5.789l0,26.6c0,3.195 -4.085,5.73 -5.954,8.322" style="fill:#fff;"/></g></svg>