<?xml version="1.0" encoding="UTF-8" standalone="no"?>
<!DOCTYPE svg PUBLIC "-//W3C//DTD SVG 1.1//EN" "http://www.w3.org/Graphics/SVG/1.1/DTD/svg11.dtd">
<svg xmlns="http://www.w3.org/2000/svg" xmlns:xlink="http://www.w3.org/1999/xlink" style="display:none">
  <symbol id='apple-icon' viewBox='0 0 256 315'>
  <svg width="256px" height="315px" viewBox="0 0 256 315" version="1.1" xmlns="http://www.w3.org/2000/svg" xmlns:xlink="http://www.w3.org/1999/xlink" preserveAspectRatio="xMidYMid">
    <g>
      <path d="M213.803394,167.030943 C214.2452,214.609646 255.542482,230.442639 256,230.644727 C255.650812,231.761357 249.401383,253.208293 234.24263,275.361446 C221.138555,294.513969 207.538253,313.596333 186.113759,313.991545 C165.062051,314.379442 158.292752,301.507828 134.22469,301.507828 C110.163898,301.507828 102.642899,313.596301 82.7151126,314.379442 C62.0350407,315.16201 46.2873831,293.668525 33.0744079,274.586162 C6.07529317,235.552544 -14.5576169,164.286328 13.147166,116.18047 C26.9103111,92.2909053 51.5060917,77.1630356 78.2026125,76.7751096 C98.5099145,76.3877456 117.677594,90.4371851 130.091705,90.4371851 C142.497945,90.4371851 165.790755,73.5415029 190.277627,76.0228474 C200.528668,76.4495055 229.303509,80.1636878 247.780625,107.209389 C246.291825,108.132333 213.44635,127.253405 213.803394,167.030988 M174.239142,50.1987033 C185.218331,36.9088319 192.607958,18.4081019 190.591988,0 C174.766312,0.636050225 155.629514,10.5457909 144.278109,23.8283506 C134.10507,35.5906758 125.195775,54.4170275 127.599657,72.4607932 C145.239231,73.8255433 163.259413,63.4970262 174.239142,50.1987249"></path>
    </g>
  </svg></symbol>
  <symbol id='facebook-icon' viewBox='0 0 589 589'><svg width="100%" height="100%" viewBox="0 0 589 589" version="1.1" xmlns="http://www.w3.org/2000/svg" xmlns:xlink="http://www.w3.org/1999/xlink" xml:space="preserve" style="fill-rule:evenodd;clip-rule:evenodd;stroke-linejoin:round;stroke-miterlimit:1.41421;"><circle id="Layer_2" cx="294.5" cy="294.5" r="294.5" style="fill:#3c5a9a;"/><path id="Icon" d="M390.259,90.396c0,0 -39.211,0 -65.239,0c-38.715,0 -81.777,16.283 -81.777,72.402c0.189,19.554 0,38.281 0,59.357l-44.788,0l0,71.271l46.174,0l0,205.177l84.847,0l0,-206.531l56.002,0l5.067,-70.117l-62.531,0c0,0 0.14,-31.191 0,-40.249c0,-22.177 23.076,-20.907 24.464,-20.907c10.981,0 32.332,0.032 37.813,0l0,-70.403l-0.032,0Z" style="fill:#fff;fill-rule:nonzero;"/></svg></symbol>
  <symbol id='github-icon' viewBox='0 0 256 250'>
  <svg width="256px" height="250px" viewBox="0 0 256 250" version="1.1" xmlns="http://www.w3.org/2000/svg" xmlns:xlink="http://www.w3.org/1999/xlink" preserveAspectRatio="xMidYMid">
    <g>
      <path d="M128.00106,0 C57.3172926,0 0,57.3066942 0,128.00106 C0,184.555281 36.6761997,232.535542 87.534937,249.460899 C93.9320223,250.645779 96.280588,246.684165 96.280588,243.303333 C96.280588,240.251045 96.1618878,230.167899 96.106777,219.472176 C60.4967585,227.215235 52.9826207,204.369712 52.9826207,204.369712 C47.1599584,189.574598 38.770408,185.640538 38.770408,185.640538 C27.1568785,177.696113 39.6458206,177.859325 39.6458206,177.859325 C52.4993419,178.762293 59.267365,191.04987 59.267365,191.04987 C70.6837675,210.618423 89.2115753,204.961093 96.5158685,201.690482 C97.6647155,193.417512 100.981959,187.77078 104.642583,184.574357 C76.211799,181.33766 46.324819,170.362144 46.324819,121.315702 C46.324819,107.340889 51.3250588,95.9223682 59.5132437,86.9583937 C58.1842268,83.7344152 53.8029229,70.715562 60.7532354,53.0843636 C60.7532354,53.0843636 71.5019501,49.6441813 95.9626412,66.2049595 C106.172967,63.368876 117.123047,61.9465949 128.00106,61.8978432 C138.879073,61.9465949 149.837632,63.368876 160.067033,66.2049595 C184.49805,49.6441813 195.231926,53.0843636 195.231926,53.0843636 C202.199197,70.715562 197.815773,83.7344152 196.486756,86.9583937 C204.694018,95.9223682 209.660343,107.340889 209.660343,121.315702 C209.660343,170.478725 179.716133,181.303747 151.213281,184.472614 C155.80443,188.444828 159.895342,196.234518 159.895342,208.176593 C159.895342,225.303317 159.746968,239.087361 159.746968,243.303333 C159.746968,246.709601 162.05102,250.70089 168.53925,249.443941 C219.370432,232.499507 256,184.536204 256,128.00106 C256,57.3066942 198.691187,0 128.00106,0 Z M47.9405593,182.340212 C47.6586465,182.976105 46.6581745,183.166873 45.7467277,182.730227 C44.8183235,182.312656 44.2968914,181.445722 44.5978808,180.80771 C44.8734344,180.152739 45.876026,179.97045 46.8023103,180.409216 C47.7328342,180.826786 48.2627451,181.702199 47.9405593,182.340212 Z M54.2367892,187.958254 C53.6263318,188.524199 52.4329723,188.261363 51.6232682,187.366874 C50.7860088,186.474504 50.6291553,185.281144 51.2480912,184.70672 C51.8776254,184.140775 53.0349512,184.405731 53.8743302,185.298101 C54.7115892,186.201069 54.8748019,187.38595 54.2367892,187.958254 Z M58.5562413,195.146347 C57.7719732,195.691096 56.4895886,195.180261 55.6968417,194.042013 C54.9125733,192.903764 54.9125733,191.538713 55.713799,190.991845 C56.5086651,190.444977 57.7719732,190.936735 58.5753181,192.066505 C59.3574669,193.22383 59.3574669,194.58888 58.5562413,195.146347 Z M65.8613592,203.471174 C65.1597571,204.244846 63.6654083,204.03712 62.5716717,202.981538 C61.4524999,201.94927 61.1409122,200.484596 61.8446341,199.710926 C62.5547146,198.935137 64.0575422,199.15346 65.1597571,200.200564 C66.2704506,201.230712 66.6095936,202.705984 65.8613592,203.471174 Z M75.3025151,206.281542 C74.9930474,207.284134 73.553809,207.739857 72.1039724,207.313809 C70.6562556,206.875043 69.7087748,205.700761 70.0012857,204.687571 C70.302275,203.678621 71.7478721,203.20382 73.2083069,203.659543 C74.6539041,204.09619 75.6035048,205.261994 75.3025151,206.281542 Z M86.046947,207.473627 C86.0829806,208.529209 84.8535871,209.404622 83.3316829,209.4237 C81.8013,209.457614 80.563428,208.603398 80.5464708,207.564772 C80.5464708,206.498591 81.7483088,205.631657 83.2786917,205.606221 C84.8005962,205.576546 86.046947,206.424403 86.046947,207.473627 Z M96.6021471,207.069023 C96.7844366,208.099171 95.7267341,209.156872 94.215428,209.438785 C92.7295577,209.710099 91.3539086,209.074206 91.1652603,208.052538 C90.9808515,206.996955 92.0576306,205.939253 93.5413813,205.66582 C95.054807,205.402984 96.4092596,206.021919 96.6021471,207.069023 Z" fill="#161614"></path>
    </g>
  </svg></symbol>
  <symbol id='google-icon' viewBox='0 0 256 262'>
  <svg width="256px" height="262px" viewBox="0 0 256 262" version="1.1" xmlns="http://www.w3.org/2000/svg" xmlns:xlink="http://www.w3.org/1999/xlink" preserveAspectRatio="xMidYMid">
    <g>
      <path d="M255.878,133.451 C255.878,122.717 255.007,114.884 253.122,106.761 L130.55,106.761 L130.55,155.209 L202.497,155.209 C201.047,167.249 193.214,185.381 175.807,197.565 L175.563,199.187 L214.318,229.21 L217.003,229.478 C241.662,206.704 255.878,173.196 255.878,133.451" fill="#4285F4"></path>
      <path d="M130.55,261.1 C165.798,261.1 195.389,249.495 217.003,229.478 L175.807,197.565 C164.783,205.253 149.987,210.62 130.55,210.62 C96.027,210.62 66.726,187.847 56.281,156.37 L54.75,156.5 L14.452,187.687 L13.925,189.152 C35.393,231.798 79.49,261.1 130.55,261.1" fill="#34A853"></path>
      <path d="M56.281,156.37 C53.525,148.247 51.93,139.543 51.93,130.55 C51.93,121.556 53.525,112.853 56.136,104.73 L56.063,103 L15.26,71.312 L13.925,71.947 C5.077,89.644 0,109.517 0,130.55 C0,151.583 5.077,171.455 13.925,189.152 L56.281,156.37" fill="#FBBC05"></path>
      <path d="M130.55,50.479 C155.064,50.479 171.6,61.068 181.029,69.917 L217.873,33.943 C195.245,12.91 165.798,0 130.55,0 C79.49,0 35.393,29.301 13.925,71.947 L56.136,104.73 C66.726,73.253 96.027,50.479 130.55,50.479" fill="#EB4335"></path>
    </g>
  </svg></symbol>
  <symbol id='ic_account_circle_black_24px' viewBox='0 0 24 24'><svg height="24" viewBox="0 0 24 24" width="24" xmlns="http://www.w3.org/2000/svg">
    <path d="M12 2C6.48 2 2 6.48 2 12s4.48 10 10 10 10-4.48 10-10S17.52 2 12 2zm0 3c1.66 0 3 1.34 3 3s-1.34 3-3 3-3-1.34-3-3 1.34-3 3-3zm0 14.2c-2.5 0-4.71-1.28-6-3.22.03-1.99 4-3.08 6-3.08 1.99 0 5.97 1.09 6 3.08-1.29 1.94-3.5 3.22-6 3.22z"/>
    <path d="M0 0h24v24H0z" fill="none"/>
  </svg></symbol>
  <symbol id='ic_add_circle_black_24px' viewBox='0 0 24 24'><svg height="24" viewBox="0 0 24 24" width="24" xmlns="http://www.w3.org/2000/svg">
    <path d="M0 0h24v24H0z" fill="none"/>
    <path d="M12 2C6.48 2 2 6.48 2 12s4.48 10 10 10 10-4.48 10-10S17.52 2 12 2zm5 11h-4v4h-2v-4H7v-2h4V7h2v4h4v2z"/>
  </svg></symbol>
  <symbol id='ic_android_black_24px' viewBox='0 0 24 24'><svg height="24" viewBox="0 0 24 24" width="24" xmlns="http://www.w3.org/2000/svg">
    <path d="M0 0h24v24H0z" fill="none"/>
    <path d="M6 18c0 .55.45 1 1 1h1v3.5c0 .83.67 1.5 1.5 1.5s1.5-.67 1.5-1.5V19h2v3.5c0 .83.67 1.5 1.5 1.5s1.5-.67 1.5-1.5V19h1c.55 0 1-.45 1-1V8H6v10zM3.5 8C2.67 8 2 8.67 2 9.5v7c0 .83.67 1.5 1.5 1.5S5 17.33 5 16.5v-7C5 8.67 4.33 8 3.5 8zm17 0c-.83 0-1.5.67-1.5 1.5v7c0 .83.67 1.5 1.5 1.5s1.5-.67 1.5-1.5v-7c0-.83-.67-1.5-1.5-1.5zm-4.97-5.84l1.3-1.3c.2-.2.2-.51 0-.71-.2-.2-.51-.2-.71 0l-1.48 1.48C13.85 1.23 12.95 1 12 1c-.96 0-1.86.23-2.66.63L7.85.15c-.2-.2-.51-.2-.71 0-.2.2-.2.51 0 .71l1.31 1.31C6.97 3.26 6 5.01 6 7h12c0-1.99-.97-3.75-2.47-4.84zM10 5H9V4h1v1zm5 0h-1V4h1v1z"/>
  </svg></symbol>
  <symbol id='ic_close_black_24px' viewBox='0 0 24 24'><svg height="24" viewBox="0 0 24 24" width="24" xmlns="http://www.w3.org/2000/svg">
    <path d="M19 6.41L17.59 5 12 10.59 6.41 5 5 6.41 10.59 12 5 17.59 6.41 19 12 13.41 17.59 19 19 17.59 13.41 12z"/>
    <path d="M0 0h24v24H0z" fill="none"/>
  </svg></symbol>
  <symbol id='ic_cancel_black_24px' viewBox='0 0 24 24'><svg height="24" viewBox="0 0 24 24" width="24" xmlns="http://www.w3.org/2000/svg">
    <path d="M12 2C6.47 2 2 6.47 2 12s4.47 10 10 10 10-4.47 10-10S17.53 2 12 2zm5 13.59L15.59 17 12 13.41 8.41 17 7 15.59 10.59 12 7 8.41 8.41 7 12 10.59 15.59 7 17 8.41 13.41 12 17 15.59z"/>
    <path d="M0 0h24v24H0z" fill="none"/>
  </svg></symbol>
  <symbol id='ic_cloud_circle_black_24px' viewBox='0 0 24 24'><svg height="24" viewBox="0 0 24 24" width="24" xmlns="http://www.w3.org/2000/svg">
    <path d="M0 0h24v24H0z" fill="none"/>
    <path d="M12 2C6.48 2 2 6.48 2 12s4.48 10 10 10 10-4.48 10-10S17.52 2 12 2zm4.5 14H8c-1.66 0-3-1.34-3-3s1.34-3 3-3l.14.01C8.58 8.28 10.13 7 12 7c2.21 0 4 1.79 4 4h.5c1.38 0 2.5 1.12 2.5 2.5S17.88 16 16.5 16z"/>
  </svg></symbol>
  <symbol id='ic_cloud_download_black_24px' viewBox='0 0 24 24'><svg height="24" viewBox="0 0 24 24" width="24" xmlns="http://www.w3.org/2000/svg">
    <path d="M0 0h24v24H0z" fill="none"/>
    <path d="M19.35 10.04C18.67 6.59 15.64 4 12 4 9.11 4 6.6 5.64 5.35 8.04 2.34 8.36 0 10.91 0 14c0 3.31 2.69 6 6 6h13c2.76 0 5-2.24 5-5 0-2.64-2.05-4.78-4.65-4.96zM17 13l-5 5-5-5h3V9h4v4h3z"/>
  </svg></symbol>
  <symbol id='ic_credit_card_black_24px' viewBox='0 0 24 24'><svg height="24" viewBox="0 0 24 24" width="24" xmlns="http://www.w3.org/2000/svg">
    <path d="M0 0h24v24H0z" fill="none"/>
    <path d="M20 4H4c-1.11 0-1.99.89-1.99 2L2 18c0 1.11.89 2 2 2h16c1.11 0 2-.89 2-2V6c0-1.11-.89-2-2-2zm0 14H4v-6h16v6zm0-10H4V6h16v2z"/>
  </svg></symbol>
  <symbol id='ic_done_black_24px' viewBox='0 0 24 24'><svg height="24" viewBox="0 0 24 24" width="24" xmlns="http://www.w3.org/2000/svg">
    <path d="M0 0h24v24H0z" fill="none"/>
    <path d="M9 16.2L4.8 12l-1.4 1.4L9 19 21 7l-1.4-1.4L9 16.2z"/>
  </svg></symbol>
  <symbol id='ic_lock_black_24px' viewBox='0 0 24 24'><svg height="24" viewBox="0 0 24 24" width="24" xmlns="http://www.w3.org/2000/svg">
    <path d="M0 0h24v24H0z" fill="none"/>
    <path d="M18 8h-1V6c0-2.76-2.24-5-5-5S7 3.24 7 6v2H6c-1.1 0-2 .9-2 2v10c0 1.1.9 2 2 2h12c1.1 0 2-.9 2-2V10c0-1.1-.9-2-2-2zm-6 9c-1.1 0-2-.9-2-2s.9-2 2-2 2 .9 2 2-.9 2-2 2zm3.1-9H8.9V6c0-1.71 1.39-3.1 3.1-3.1 1.71 0 3.1 1.39 3.1 3.1v2z"/>
  </svg></symbol>
  <symbol id='ic_person_black_24px' viewBox='0 0 24 24'><svg height="24" viewBox="0 0 24 24" width="24" xmlns="http://www.w3.org/2000/svg">
    <path d="M0 0h24v24H0z" fill="none"/>
    <path d="M12 12c2.21 0 4-1.79 4-4s-1.79-4-4-4-4 1.79-4 4 1.79 4 4 4zm0 2c-2.67 0-8 1.34-8 4v2h16v-2c0-2.66-5.33-4-8-4z"/>
  </svg></symbol>
  <symbol id='ic_devices_black_24px' viewBox='0 0 24 24'><svg height="24" viewBox="0 0 24 24" width="24" xmlns="http://www.w3.org/2000/svg">
    <path d="M0 0h24v24H0z" fill="none"/>
    <path d="M4 6h18V4H4c-1.1 0-2 .9-2 2v11H0v3h14v-3H4V6zm19 2h-6c-.55 0-1 .45-1 1v10c0 .55.45 1 1 1h6c.55 0 1-.45 1-1V9c0-.55-.45-1-1-1zm-1 9h-4v-7h4v7z"/>
  </svg></symbol>
  <symbol id='ic_phonelink_erase_black_18px' viewBox='0 0 24 24'><svg height="18" viewBox="0 0 24 24" width="18" xmlns="http://www.w3.org/2000/svg">
    <path d="M0 0h24v24H0V0z" fill="none"/>
    <path d="M13 8.2l-1-1-4 4-4-4-1 1 4 4-4 4 1 1 4-4 4 4 1-1-4-4 4-4zM19 1H9c-1.1 0-2 .9-2 2v3h2V4h10v16H9v-2H7v3c0 1.1.9 2 2 2h10c1.1 0 2-.9 2-2V3c0-1.1-.9-2-2-2z"/>
  </svg></symbol>
  <symbol id='ic_email_black_24px' viewBox='0 0 24 24'><svg height="24" viewBox="0 0 24 24" width="24" xmlns="http://www.w3.org/2000/svg">
    <path d="M20 4H4c-1.1 0-1.99.9-1.99 2L2 18c0 1.1.9 2 2 2h16c1.1 0 2-.9 2-2V6c0-1.1-.9-2-2-2zm0 4l-8 5-8-5V6l8 5 8-5v2z"/>
    <path d="M0 0h24v24H0z" fill="none"/>
  </svg></symbol>
  <symbol id='ic_error_black_24px' viewBox='0 0 24 24'><svg height="24" viewBox="0 0 24 24" width="24" xmlns="http://www.w3.org/2000/svg">
    <path d="M0 0h24v24H0z" fill="none"/>
    <path d="M12 2C6.48 2 2 6.48 2 12s4.48 10 10 10 10-4.48 10-10S17.52 2 12 2zm1 15h-2v-2h2v2zm0-4h-2V7h2v6z"/>
  </svg></symbol>
  <symbol id='ic_forward_black_24px' viewBox='0 0 24 24'><svg height="24" viewBox="0 0 24 24" width="24" xmlns="http://www.w3.org/2000/svg">
    <path d="M12 8V4l8 8-8 8v-4H4V8z"/>
    <path d="M0 0h24v24H0z" fill="none"/>
  </svg></symbol>
  <symbol id='ic_lock_black_24px' viewBox='0 0 24 24'><svg height="24" viewBox="0 0 24 24" width="24" xmlns="http://www.w3.org/2000/svg">
    <path d="M0 0h24v24H0z" fill="none"/>
    <path d="M18 8h-1V6c0-2.76-2.24-5-5-5S7 3.24 7 6v2H6c-1.1 0-2 .9-2 2v10c0 1.1.9 2 2 2h12c1.1 0 2-.9 2-2V10c0-1.1-.9-2-2-2zm-6 9c-1.1 0-2-.9-2-2s.9-2 2-2 2 .9 2 2-.9 2-2 2zm3.1-9H8.9V6c0-1.71 1.39-3.1 3.1-3.1 1.71 0 3.1 1.39 3.1 3.1v2z"/>
  </svg></symbol>
  <symbol id='ic_more_horiz_black_24px' viewBox='0 0 24 24'><svg height="24" viewBox="0 0 24 24" width="24" xmlns="http://www.w3.org/2000/svg">
    <path d="M0 0h24v24H0z" fill="none"/>
    <path d="M6 10c-1.1 0-2 .9-2 2s.9 2 2 2 2-.9 2-2-.9-2-2-2zm12 0c-1.1 0-2 .9-2 2s.9 2 2 2 2-.9 2-2-.9-2-2-2zm-6 0c-1.1 0-2 .9-2 2s.9 2 2 2 2-.9 2-2-.9-2-2-2z"/>
  </svg></symbol>
  <symbol id='ic_phonelink_setup_black_24px' viewBox='0 0 24 24'><svg height="24" viewBox="0 0 24 24" width="24" xmlns="http://www.w3.org/2000/svg">
    <path d="M0 0h24v24H0V0z" fill="none"/>
    <path d="M11.8 12.5v-1l1.1-.8c.1-.1.1-.2.1-.3l-1-1.7c-.1-.1-.2-.2-.3-.1l-1.3.4c-.3-.2-.6-.4-.9-.5l-.2-1.3c0-.1-.1-.2-.3-.2H7c-.1 0-.2.1-.3.2l-.2 1.3c-.3.1-.6.3-.9.5l-1.3-.5c-.1 0-.2 0-.3.1l-1 1.7c-.1.1 0 .2.1.3l1.1.8v1l-1.1.8c-.1.2-.1.3-.1.4l1 1.7c.1.1.2.2.3.1l1.4-.4c.3.2.6.4.9.5l.2 1.3c-.1.1.1.2.2.2h2c.1 0 .2-.1.3-.2l.2-1.3c.3-.1.6-.3.9-.5l1.3.5c.1 0 .2 0 .3-.1l1-1.7c.1-.1 0-.2-.1-.3l-1.1-.9zM8 14c-1.1 0-2-.9-2-2s.9-2 2-2 2 .9 2 2-.9 2-2 2zM19 1H9c-1.1 0-2 .9-2 2v3h2V4h10v16H9v-2H7v3c0 1.1.9 2 2 2h10c1.1 0 2-.9 2-2V3c0-1.1-.9-2-2-2z"/>
  </svg></symbol>
  <symbol id='ic_replay_black_24px' viewBox='0 0 24 24'><svg height="24" viewBox="0 0 24 24" width="24" xmlns="http://www.w3.org/2000/svg">
    <path d="M0 0h24v24H0z" fill="none"/>
    <path d="M12 5V1L7 6l5 5V7c3.31 0 6 2.69 6 6s-2.69 6-6 6-6-2.69-6-6H4c0 4.42 3.58 8 8 8s8-3.58 8-8-3.58-8-8-8z"/>
  </svg></symbol>
  <symbol id='ic_security_black_24px' viewBox='0 0 24 24'><svg height="24" viewBox="0 0 24 24" width="24" xmlns="http://www.w3.org/2000/svg">
    <path d="M12 1L3 5v6c0 5.55 3.84 10.74 9 12 5.16-1.26 9-6.45 9-12V5l-9-4zm0 10.99h7c-.53 4.12-3.28 7.79-7 8.94V12H5V6.3l7-3.11v8.8z"/>
    <path d="M0 0h24v24H0z" fill="none"/>
  </svg></symbol>
  <symbol id='ic_supervisor_account_black_24px' viewBox='0 0 24 24'><svg height="24" viewBox="0 0 24 24" width="24" xmlns="http://www.w3.org/2000/svg">
    <path d="M0 0h24v24H0z" fill="none"/>
    <path d="M16.5 12c1.38 0 2.49-1.12 2.49-2.5S17.88 7 16.5 7C15.12 7 14 8.12 14 9.5s1.12 2.5 2.5 2.5zM9 11c1.66 0 2.99-1.34 2.99-3S10.66 5 9 5C7.34 5 6 6.34 6 8s1.34 3 3 3zm7.5 3c-1.83 0-5.5.92-5.5 2.75V19h11v-2.25c0-1.83-3.67-2.75-5.5-2.75zM9 13c-2.33 0-7 1.17-7 3.5V19h7v-2.25c0-.85.33-2.34 2.37-3.47C10.5 13.1 9.66 13 9 13z"/>
  </svg></symbol>
  <symbol id='ic_textsms_black_24px' viewBox='0 0 24 24'><svg height="24" viewBox="0 0 24 24" width="24" xmlns="http://www.w3.org/2000/svg">
    <path d="M20 2H4c-1.1 0-1.99.9-1.99 2L2 22l4-4h14c1.1 0 2-.9 2-2V4c0-1.1-.9-2-2-2zM9 11H7V9h2v2zm4 0h-2V9h2v2zm4 0h-2V9h2v2z"/>
    <path d="M0 0h24v24H0z" fill="none"/>
  </svg></symbol>
  <symbol id='ic_vpn_key_black_24px' viewBox='0 0 24 24'><svg height="24" viewBox="0 0 24 24" width="24" xmlns="http://www.w3.org/2000/svg">
    <path d="M0 0h24v24H0z" fill="none"/>
    <path d="M12.65 10C11.83 7.67 9.61 6 7 6c-3.31 0-6 2.69-6 6s2.69 6 6 6c2.61 0 4.83-1.67 5.65-4H17v4h4v-4h2v-4H12.65zM7 14c-1.1 0-2-.9-2-2s.9-2 2-2 2 .9 2 2-.9 2-2 2z"/>
  </svg></symbol>
  <symbol id='ic_warning_black_24px' viewBox='0 0 24 24'><svg height="24" viewBox="0 0 24 24" width="24" xmlns="http://www.w3.org/2000/svg">
    <path d="M0 0h24v24H0z" fill="none"/>
    <path d="M1 21h22L12 2 1 21zm12-3h-2v-2h2v2zm0-4h-2v-4h2v4z"/>
  </svg></symbol>
  <symbol id='ic_home_black_24px' viewBox='0 0 24 24'><svg height="24" viewBox="0 0 24 24" width="24" xmlns="http://www.w3.org/2000/svg">
    <path d="M10 20v-6h4v6h5v-8h3L12 3 2 12h3v8z"/>
    <path d="M0 0h24v24H0z" fill="none"/>
  </svg></symbol>
  <symbol id='instagram-icon' viewBox='0 0 256 256'>
  <svg width="256px" height="256px" viewBox="0 0 256 256" version="1.1" xmlns="http://www.w3.org/2000/svg" xmlns:xlink="http://www.w3.org/1999/xlink" preserveAspectRatio="xMidYMid">
    <g>
      <path d="M226.467714,256 L29.5322856,256 C13.2237152,256 0,242.771645 0,226.451622 L0,29.5325465 C0,13.2215704 13.2237152,0 29.5322856,0 L226.467714,0 C242.778546,0 256,13.2215704 256,29.5325465 L256,226.451622 C256,242.771645 242.778546,256 226.467714,256 L226.467714,256 Z M127.998869,78.7662732 C100.807364,78.7662732 78.767839,100.803732 78.767839,127.995477 C78.767839,155.182698 100.807364,177.231465 127.998869,177.231465 C155.190374,177.231465 177.234423,155.182698 177.234423,127.995477 C177.234423,100.803732 155.190374,78.7662732 127.998869,78.7662732 L127.998869,78.7662732 Z M226.467714,39.3774825 C226.467714,33.9427521 222.057548,29.5325465 216.611557,29.5325465 L187.079272,29.5325465 C181.640066,29.5325465 177.234423,33.9427521 177.234423,39.3774825 L177.234423,68.9213372 C177.234423,74.3560676 181.640066,78.7662732 187.079272,78.7662732 L216.611557,78.7662732 C222.057548,78.7662732 226.467714,74.3560676 226.467714,68.9213372 L226.467714,39.3774825 Z M226.467714,108.296558 L204.181672,108.296558 C205.805518,114.59976 206.764447,121.185667 206.764447,127.995477 C206.764447,171.504983 171.501206,206.766273 127.998869,206.766273 C84.4987941,206.766273 49.2332918,171.504983 49.2332918,127.995477 C49.2332918,121.185667 50.1967436,114.59976 51.8205896,108.296558 L29.5322856,108.296558 L29.5322856,216.613471 C29.5322856,222.043678 33.9424523,226.451622 39.3884427,226.451622 L216.611557,226.451622 C222.057548,226.451622 226.467714,222.043678 226.467714,216.613471 L226.467714,108.296558 Z" fill="#343433"></path>
    </g>
  </svg></symbol>
  <symbol id='linkedin-icon' viewBox='0 0 64 64'><svg xmlns="http://www.w3.org/2000/svg" viewBox="0 0 64 64"><path d="M12.8 51.2V24.384h8.192V51.2H12.8m8.448-34.24c.064 2.304-1.664 4.16-4.416 4.16-2.56 0-4.224-1.856-4.224-4.16 0-2.368 1.728-4.16 4.352-4.16s4.288 1.792 4.288 4.16M42.752 51.2V36.352c0-3.456-1.152-5.824-4.16-5.824-2.24 0-3.584 1.6-4.224 3.136-.192.576-.256 1.344-.256 2.112V51.2H25.92V32.96c0-3.328-.128-6.144-.192-8.576h7.104l.384 3.776h.128c1.088-1.792 3.776-4.352 8.192-4.352 5.376 0 9.472 3.648 9.472 11.584V51.2h-8.256M64 5.632C64 2.56 61.44 0 58.368 0H5.632C2.56 0 0 2.56 0 5.632v52.736C0 61.44 2.56 64 5.632 64h52.736C61.44 64 64 61.44 64 58.368V5.632" fill="#1d87bd"/></svg></symbol>
  <symbol id='microsoft-windows-icon' viewBox='0 0 256 257'>
  <svg width="256px" height="257px" viewBox="0 0 256 257" version="1.1" xmlns="http://www.w3.org/2000/svg" xmlns:xlink="http://www.w3.org/1999/xlink" preserveAspectRatio="xMidYMid">
    <g>
      <path d="M0,36.3573818 L104.619084,22.1093454 L104.664817,123.02292 L0.0955693151,123.618411 L0,36.3573818 Z M104.569248,134.650129 L104.650452,235.651651 L0.0812046021,221.274919 L0.0753414539,133.972642 L104.569248,134.650129 Z M117.25153,20.2454506 L255.967753,6.21724894e-15 L255.967753,121.739477 L117.25153,122.840723 L117.25153,20.2454506 Z M256,135.599959 L255.96746,256.791232 L117.251237,237.213007 L117.056874,135.373055 L256,135.599959 Z"></path>
    </g>
  </svg></symbol>
  <symbol id='openid-icon' viewBox='0 0 256 256'>
  <svg viewBox="0 0 256 256" xmlns="http://www.w3.org/2000/svg" fill-rule="evenodd" clip-rule="evenodd" stroke-linejoin="round" stroke-miterlimit="1.414">
    <path d="M114.44 220.062l26.931-19.415-1.253-154.065-25.678 20.041v153.439z" fill="#ff8e00" fill-rule="nonzero"/>
    <path d="M114.754 220.062c-100.73-16.014-103.601-103.711-.627-122.751l.313 18.162c-73.044 12.178-63.789 77.706 0 87.366l.314 17.223zM141.057 114.846c12.457.085 23.309 5.787 34.133 11.587l-15.97 11.899h51.042l.313-34.759-15.971 11.9c-16.161-8.163-31.016-17.96-53.547-18.162v17.535z" fill="#626262" fill-rule="nonzero"/>
  </svg></symbol>
  <symbol id='outlook-icon' viewBox='0 0 371 372'><svg width="100%" height="100%" viewBox="0 0 371 372" version="1.1" xmlns="http://www.w3.org/2000/svg" xmlns:xlink="http://www.w3.org/1999/xlink" xml:space="preserve" style="fill-rule:evenodd;clip-rule:evenodd;stroke-linejoin:round;stroke-miterlimit:1.41421;"><g><path d="M0,37.943l0,291.443l217.489,42.614l0,-371.585l-217.489,37.528Z" style="fill:#1376bc;fill-rule:nonzero;"/><path d="M230.988,177.362l0,97.747l122.994,0c0,0 17.999,-2.503 16.499,-26.114l0.089,-127.7l-90.084,60.952c0,0 -25.499,20.59 -49.498,-4.885Z" style="fill:#1376bc;fill-rule:nonzero;"/><path d="M230.988,75.839l123.994,0c0,0 14.589,-1 14.588,14.891l-112.083,74.66l-26.499,-16.891l0,-72.66Z" style="fill:#1376bc;fill-rule:nonzero;"/><path d="M108.696,221.951c-13.15,0 -23.809,-17.484 -23.809,-39.052c0,-21.568 10.659,-39.052 23.809,-39.052c13.149,0 23.809,17.484 23.809,39.052c0,21.568 -10.66,39.052 -23.809,39.052ZM109.277,117.096c-27.349,0 -49.518,29.508 -49.518,65.91c0,36.402 22.169,65.91 49.518,65.91c27.347,0 49.517,-29.508 49.517,-65.91c0,-36.402 -22.17,-65.91 -49.517,-65.91Z" style="fill:#fff;fill-rule:nonzero;"/></g></svg></symbol>
  <symbol id='paypal-icon' viewBox='0 0 256 302'>
  <svg width="256px" height="302px" viewBox="0 0 256 302" version="1.1" xmlns="http://www.w3.org/2000/svg" xmlns:xlink="http://www.w3.org/1999/xlink" preserveAspectRatio="xMidYMid">
    <g>
      <path d="M217.168476,23.5070146 C203.234077,7.62479651 178.045612,0.815753338 145.823355,0.815753338 L52.3030619,0.815753338 C45.7104431,0.815753338 40.1083819,5.6103852 39.0762042,12.1114399 L0.136468302,259.076601 C-0.637664968,263.946149 3.13311322,268.357876 8.06925331,268.357876 L65.804612,268.357876 L80.3050438,176.385849 L79.8555471,179.265958 C80.8877248,172.764903 86.4481659,167.970272 93.0324607,167.970272 L120.46841,167.970272 C174.366398,167.970272 216.569147,146.078116 228.897012,82.7490197 C229.263268,80.8761167 229.579581,79.0531577 229.854273,77.2718188 C228.297683,76.4477414 228.297683,76.4477414 229.854273,77.2718188 C233.525163,53.8646924 229.829301,37.9325302 217.168476,23.5070146" fill="#27346A"></path>
      <path d="M102.396976,68.8395929 C103.936919,68.1070797 105.651665,67.699203 107.449652,67.699203 L180.767565,67.699203 C189.449511,67.699203 197.548776,68.265236 204.948824,69.4555699 C207.071448,69.7968545 209.127479,70.1880831 211.125242,70.6375799 C213.123006,71.0787526 215.062501,71.5781934 216.943728,72.1275783 C217.884341,72.4022708 218.808307,72.6852872 219.715624,72.9849517 C223.353218,74.2002577 226.741092,75.61534 229.854273,77.2718188 C233.525163,53.8563683 229.829301,37.9325302 217.168476,23.5070146 C203.225753,7.62479651 178.045612,0.815753338 145.823355,0.815753338 L52.2947379,0.815753338 C45.7104431,0.815753338 40.1083819,5.6103852 39.0762042,12.1114399 L0.136468302,259.068277 C-0.637664968,263.946149 3.13311322,268.349552 8.0609293,268.349552 L65.804612,268.349552 L95.8875974,77.5798073 C96.5035744,73.6675208 99.0174265,70.4627756 102.396976,68.8395929 Z" fill="#27346A"></path>
      <path d="M228.897012,82.7490197 C216.569147,146.069792 174.366398,167.970272 120.46841,167.970272 L93.0241367,167.970272 C86.4398419,167.970272 80.8794007,172.764903 79.8555471,179.265958 L61.8174095,293.621258 C61.1431644,297.883153 64.4394738,301.745495 68.7513129,301.745495 L117.421821,301.745495 C123.182038,301.745495 128.084882,297.550192 128.983876,291.864891 L129.458344,289.384335 L138.631407,231.249423 L139.222412,228.036354 C140.121406,222.351053 145.02425,218.15575 150.784467,218.15575 L158.067979,218.15575 C205.215193,218.15575 242.132193,199.002194 252.920115,143.605884 C257.423406,120.456802 255.092683,101.128442 243.181019,87.5519756 C239.568397,83.4399129 235.081754,80.0437153 229.854273,77.2718188 C229.571257,79.0614817 229.263268,80.8761167 228.897012,82.7490197 L228.897012,82.7490197 Z" fill="#2790C3"></path>
      <path d="M216.952052,72.1275783 C215.070825,71.5781934 213.13133,71.0787526 211.133566,70.6375799 C209.135803,70.1964071 207.071448,69.8051785 204.957148,69.4638939 C197.548776,68.265236 189.457835,67.699203 180.767565,67.699203 L107.457976,67.699203 C105.651665,67.699203 103.936919,68.1070797 102.4053,68.8479169 C99.0174265,70.4710996 96.5118984,73.6675208 95.8959214,77.5881313 L80.3133678,176.385849 L79.8638711,179.265958 C80.8877248,172.764903 86.4481659,167.970272 93.0324607,167.970272 L120.476734,167.970272 C174.374722,167.970272 216.577471,146.078116 228.905336,82.7490197 C229.271592,80.8761167 229.579581,79.0614817 229.862597,77.2718188 C226.741092,75.623664 223.361542,74.2002577 219.723948,72.9932757 C218.816631,72.6936112 217.892665,72.4022708 216.952052,72.1275783" fill="#1F264F"></path>
    </g>
  </svg></symbol>
  <symbol id='pinterest-icon' viewBox='0 0 256 256'>
  <svg width="256px" height="256px" viewBox="0 0 256 256" version="1.1" xmlns="http://www.w3.org/2000/svg" xmlns:xlink="http://www.w3.org/1999/xlink" preserveAspectRatio="xMidYMid">
    <g>
      <path d="M0,128.002 C0,180.416 31.518,225.444 76.619,245.241 C76.259,236.303 76.555,225.573 78.847,215.848 C81.308,205.457 95.317,146.1 95.317,146.1 C95.317,146.1 91.228,137.927 91.228,125.848 C91.228,106.879 102.222,92.712 115.914,92.712 C127.557,92.712 133.182,101.457 133.182,111.929 C133.182,123.633 125.717,141.14 121.878,157.355 C118.671,170.933 128.686,182.008 142.081,182.008 C166.333,182.008 182.667,150.859 182.667,113.953 C182.667,85.899 163.772,64.901 129.405,64.901 C90.577,64.901 66.388,93.857 66.388,126.201 C66.388,137.353 69.676,145.217 74.826,151.307 C77.194,154.104 77.523,155.229 76.666,158.441 C76.052,160.796 74.642,166.466 74.058,168.713 C73.206,171.955 70.579,173.114 67.649,171.917 C49.765,164.616 41.436,145.031 41.436,123.015 C41.436,86.654 72.102,43.054 132.918,43.054 C181.788,43.054 213.953,78.418 213.953,116.379 C213.953,166.592 186.037,204.105 144.887,204.105 C131.068,204.105 118.069,196.635 113.616,188.15 C113.616,188.15 106.185,217.642 104.611,223.337 C101.897,233.206 96.585,243.07 91.728,250.758 C103.24,254.156 115.401,256.007 128.005,256.007 C198.689,256.007 256.001,198.698 256.001,128.002 C256.001,57.309 198.689,0 128.005,0 C57.314,0 0,57.309 0,128.002 Z" fill="#CB1F27"></path>
    </g>
  </svg></symbol>
  <symbol id='stripe-icon' viewBox='0 0 256 256'><svg width="100%" height="100%" viewBox="0 0 256 256" version="1.1" xmlns="http://www.w3.org/2000/svg" xmlns:xlink="http://www.w3.org/1999/xlink" xml:space="preserve" style="fill-rule:evenodd;clip-rule:evenodd;stroke-linejoin:round;stroke-miterlimit:1.41421;"><g><rect x="0" y="0" width="256" height="256" style="fill:#248cd0;"/><use xlink:href="#_Image1" x="68.5" y="47.959" width="123px" height="164.083px"/><path d="M139.688,111.001c-12.927,-4.782 -20.011,-8.5 -20.011,-14.344c0,-4.959 4.073,-7.792 11.334,-7.792c13.281,0 26.916,5.136 36.301,9.739l5.313,-32.76c-7.438,-3.542 -22.667,-9.385 -43.739,-9.385c-14.875,0 -27.272,3.895 -36.125,11.156c-9.209,7.614 -13.991,18.594 -13.991,31.875c0,24.083 14.699,34.354 38.605,43.031c15.406,5.489 20.542,9.386 20.542,15.406c0,5.844 -4.959,9.208 -13.99,9.208c-11.157,0 -29.572,-5.489 -41.615,-12.572l-5.312,33.114c10.27,5.844 29.395,11.864 49.23,11.864c15.759,0 28.864,-3.718 37.718,-10.801c9.916,-7.792 15.052,-19.302 15.052,-34.177c0,-24.615 -15.052,-34.886 -39.313,-43.562Z" style="fill:#fff;fill-rule:nonzero;"/></g></svg></symbol>
  <symbol id='twitter-icon' viewBox='0 0 589 589'><svg width="100%" height="100%" viewBox="0 0 589 589" version="1.1" xmlns="http://www.w3.org/2000/svg" xmlns:xlink="http://www.w3.org/1999/xlink" xml:space="preserve" style="fill-rule:evenodd;clip-rule:evenodd;stroke-linejoin:round;stroke-miterlimit:1.41421;"><circle id="Layer_2" cx="294.5" cy="294.5" r="294.5" style="fill:#2daae1;"/><path id="Icon" d="M483.329,177.353c-13.891,6.164 -28.811,10.331 -44.498,12.204c16.01,-9.587 28.275,-24.779 34.066,-42.86c-14.955,8.879 -31.537,15.328 -49.209,18.801c-14.125,-15.056 -34.267,-24.456 -56.551,-24.456c-42.773,0 -77.462,34.675 -77.462,77.473c0,6.064 0.683,11.98 1.996,17.66c-64.389,-3.236 -121.474,-34.079 -159.684,-80.945c-6.672,11.446 -10.491,24.754 -10.491,38.953c0,26.875 13.679,50.587 34.464,64.477c-12.699,-0.396 -24.643,-3.882 -35.097,-9.686c0,0.322 0,0.645 0,0.979c0,37.54 26.701,68.842 62.145,75.961c-6.511,1.784 -13.344,2.716 -20.413,2.716c-4.998,0 -9.847,-0.473 -14.584,-1.364c9.859,30.769 38.471,53.166 72.363,53.799c-26.515,20.785 -59.925,33.175 -96.212,33.175c-6.25,0 -12.427,-0.373 -18.491,-1.104c34.291,21.988 75.006,34.824 118.759,34.824c142.496,0 220.428,-118.052 220.428,-220.428c0,-3.361 -0.074,-6.697 -0.236,-10.021c15.179,-10.977 28.326,-24.618 38.707,-40.158Z" style="fill:#fff;fill-rule:nonzero;"/></svg></symbol>
  <symbol id='linux-icon' viewBox='0 0 256 256'>
<svg version="1.1" id="Layer_1" xmlns="http://www.w3.org/2000/svg" xmlns:xlink="http://www.w3.org/1999/xlink" x="0px" y="0px"
     viewBox="0 0 512.002 512.002" style="enable-background:new 0 0 512.002 512.002;" xml:space="preserve">
<g>
    <path style="fill:#FFFFFF;" d="M259.345,110.181c-0.076-0.789-0.112-1.578-0.112-2.369c0-11.578,7.584-20.997,16.903-20.997
        c9.537,0,17.007,9.223,17.007,20.997c0,2.666-0.401,5.236-1.148,7.61c2.795-4.442,4.412-10.032,4.412-15.892
        c0-14.079-9-25.535-20.06-25.535c-11.063,0-20.06,11.455-20.06,25.535c0,3.461,0.542,6.849,1.615,10.099
        C258.369,109.807,258.851,109.992,259.345,110.181z"/>
    <path style="fill:#FFFFFF;" d="M209.407,87.924c0.604-0.092,1.157-0.134,1.707-0.134c7.418,0,14.069,7.281,15.812,17.311
        c0.175,1.1,0.285,2.196,0.334,3.277c0.482-0.245,0.972-0.475,1.471-0.688c0.245-1.739,0.364-3.369,0.364-5.006
        c0-12.986-6.879-23.957-15.019-23.957c-6.933,0-12.775,7.636-14.44,17.95C201.532,91.973,204.993,88.657,209.407,87.924z"/>
    <path style="fill:#FFFFFF;" d="M349.093,349.859c1.865-7.908,5.575-28.1,2.063-52.525c-4.438-30.87-47.875-126.994-55.35-137.727
        c-4.36,0.609-15.946,7.304-25.342,12.733c-10.896,6.295-22.166,12.807-29.829,15.019c-1.6,0.453-3.273,0.677-4.997,0.677
        c-11.199,0-23.32-9.468-31.135-16.926c-1.365,14.472-9.078,32.835-17.423,42.273c-5.271,6.045-9.982,19.854-14.538,33.21
        c-4.22,12.367-8.583,25.157-13.925,33.592c-10.809,16.842-17.009,49.555-9.144,68.159c3.806,9.018,17.62,19.668,29.807,29.062
        c14.905,11.491,27.776,21.413,29.196,31.419c1.657,11.831-4.635,18.388-10.927,21.497l15.961,18.263
        c2.466,0.374,8.405,1.091,17.712,1.091c10.886,0,22.97-0.952,35.907-2.834c31.763-4.705,53.886-30.88,58.261-36.438
        c0.023-7.363,0.248-40.123,2.396-50.366c0.834-3.945,4.037-10.547,16.136-10.547C345.803,349.488,347.594,349.653,349.093,349.859z
        "/>
</g>
<g>
    <path style="fill:#E69629;" d="M210.488,147.081c0.623,2.422,6.136,8.617,14.71,14.242c1.217,0.781,2.359,1.558,3.431,2.286
        c4.756,3.232,6.871,4.559,10.29,4.098c5.034-0.66,23.579-11.904,31.499-16.706l1.971-1.194c2.949-1.796,5.306-3.023,7.2-4.009
        c3.75-1.951,4.089-2.266,4.249-2.978c-0.425-1.103-3.926-4.056-10.641-6.364c-2.134-0.764-5.162-1.974-8.67-3.374
        c-7.589-3.03-17.984-7.176-22.197-7.922c-0.18-0.034-0.349-0.045-0.539-0.045c-3.586,0-10.831,4.499-18.031,11.194
        C220.211,139.513,213.283,144.92,210.488,147.081z"/>
    <path style="fill:#E69629;" d="M147.149,395.532c-3.119-5.222-5.815-9.735-7.27-11.984c-5.738-8.931-15.696-18.907-20.442-18.907
        c-0.416,0-0.635,0.097-0.777,0.181c-2.533,1.442-4.662,5.837-6.723,10.084c-2.847,5.875-6.075,12.535-12.036,16.146
        c-4.41,2.676-11.152,4.138-17.668,5.555c-4.637,1.007-15.493,3.362-16.003,5.562c-0.703,2.968-0.049,6.033,0.781,9.913
        c0.977,4.578,2.196,10.274,1.158,17.267c-0.732,4.386-2.063,8.575-3.354,12.627c-1.793,5.637-3.826,12.03-2.073,13.995
        c2.162,1.909,15.207,4.019,24.731,5.562c11.972,1.937,24.351,3.942,31.932,7.118l2.009,0.846
        c13.579,5.706,38.854,16.329,51.622,16.329c1.162,0,2.152-0.094,2.951-0.274c2.202-1.482,11.531-8.184,13.284-16.424
        c2.394-10.619-7.338-23.005-13.349-29.444C169.25,432.519,156.477,411.14,147.149,395.532z"/>
    <path style="fill:#E69629;" d="M435.761,420.974l-1.556-0.819c-10.688-5.65-16.307-20.984-15.563-32.542
        c0.139-2.129-0.126-3.78-0.557-5.045c-1.974,3.247-4.793,7.348-8.143,10.697c-5.691,5.692-19.584,11.833-32.105,11.833
        c-4.67,0-8.927-0.823-12.652-2.448c-12.498-5.451-14.202-21.081-14.234-28.917c-0.185,0.052-0.354,0.112-0.505,0.183
        c-0.764,2.701-0.024,11.806,0.475,17.935c0.267,3.279,0.542,6.669,0.705,9.78c0.708,13.708-3.658,36.958-7.447,54.049
        c-3.597,16.732,3.097,28.464,11.224,30.997c0.73,0.232,1.551,0.346,2.453,0.346c7.487,0,19.886-7.749,30.848-19.285
        c7.788-8.189,25.122-17.04,40.416-24.85c8.622-4.402,17.537-8.956,20.071-11.271c0.564-0.525,0.648-0.819,0.65-0.821
        C449.681,428.282,439.568,422.972,435.761,420.974z"/>
</g>
<path d="M461.071,411.093c-15.014-6.147-21.437-14.308-20.816-26.485c0.64-14.212-7.423-24.62-11.252-28.733
    c2.313-8.837,9.073-39.406,0.007-65.959c-9.743-28.42-39.49-71.825-70.183-114.492c-12.565-17.522-13.159-36.57-13.846-58.625
    c-0.658-21.036-1.4-44.88-13.131-71.387C319.095,16.55,293.501,0,261.628,0c-18.961,0-38.424,5.926-53.401,16.257
    c-30.67,21.167-26.616,67.316-23.933,97.851c0.368,4.182,0.713,8.132,0.915,11.504c1.786,29.908,0.161,45.672-1.964,50.463
    c-1.375,3.131-8.143,12.041-15.306,21.476c-7.408,9.758-15.807,20.816-22.691,31.121c-8.214,12.401-14.845,31.355-21.257,49.684
    c-4.692,13.411-9.124,26.08-13.438,33.655c-8.177,14.564-6.142,28.145-4.444,34.422c-3.096,2.15-7.568,6.386-11.343,14.366
    c-4.563,9.736-13.821,14.967-33.072,18.669c-8.847,1.81-14.947,5.53-18.137,11.056c-4.642,8.043-2.113,18.148,0.193,25.056
    c3.408,10.151,1.284,16.577-2.577,28.246c-0.89,2.691-1.899,5.741-2.921,9.102c-1.61,5.308-1.029,10.131,1.722,14.341
    c7.27,11.113,28.486,15.033,50.326,17.613c13.04,1.548,27.312,6.763,41.116,11.808c13.525,4.942,27.511,10.054,40.223,11.605
    c1.932,0.243,3.846,0.364,5.691,0.364c19.194,0,27.866-12.735,30.616-17.967c6.894-1.407,30.673-5.912,55.181-6.518
    c24.469-0.697,48.143,4.135,54.85,5.635c2.108,4.036,7.667,13.253,16.527,18.004c4.87,2.662,11.647,4.188,18.588,4.188
    c0.002,0,0,0,0.002,0c7.413,0,21.516-1.753,32.678-13.497c11.133-11.796,38.949-26.859,59.261-37.856
    c4.533-2.454,8.773-4.751,12.491-6.822c11.41-6.325,17.636-15.362,17.081-24.794C474.141,421.194,468.955,414.322,461.071,411.093z
     M276.345,73.995c11.061,0,20.06,11.455,20.06,25.535c0,5.859-1.617,11.449-4.412,15.892c0.745-2.374,1.148-4.944,1.148-7.61
    c0-11.774-7.47-20.997-17.007-20.997c-9.32,0-16.903,9.419-16.903,20.997c0,0.791,0.039,1.58,0.112,2.369
    c-0.494-0.188-0.975-0.374-1.445-0.552c-1.073-3.25-1.615-6.638-1.615-10.099C256.284,85.451,265.282,73.995,276.345,73.995z
     M242.329,125.164c4.214,0.744,14.606,4.892,22.197,7.922c3.508,1.4,6.539,2.61,8.67,3.374c6.715,2.308,10.217,5.261,10.641,6.364
    c-0.159,0.713-0.499,1.027-4.249,2.978c-1.894,0.985-4.25,2.211-7.2,4.009l-1.971,1.194c-7.92,4.803-26.465,16.048-31.499,16.706
    c-3.42,0.46-5.535-0.868-10.29-4.098c-1.073-0.73-2.214-1.506-3.431-2.286c-8.573-5.627-14.088-11.82-14.71-14.242
    c2.795-2.16,9.723-7.568,13.27-10.771c7.2-6.695,14.445-11.194,18.031-11.194C241.978,125.117,242.15,125.13,242.329,125.164z
     M214.073,78.724c8.142,0,15.019,10.97,15.019,23.957c0,1.638-0.118,3.267-0.364,5.006c-0.499,0.213-0.989,0.445-1.471,0.688
    c-0.049-1.083-0.161-2.177-0.334-3.277c-1.742-10.03-8.394-17.311-15.812-17.311c-0.549,0-1.101,0.042-1.707,0.134
    c-4.413,0.735-7.875,4.049-9.772,8.751C201.299,86.359,207.142,78.724,214.073,78.724z M189.271,469.128
    c-1.753,8.241-11.083,14.942-13.284,16.424c-0.799,0.18-1.788,0.274-2.951,0.274c-12.768,0-38.043-10.623-51.622-16.329
    l-2.009-0.846c-7.583-3.178-19.961-5.18-31.932-7.118c-9.525-1.543-22.568-3.653-24.731-5.562c-1.753-1.966,0.28-8.358,2.073-13.995
    c1.291-4.052,2.624-8.241,3.354-12.627c1.036-6.993-0.181-12.691-1.158-17.267c-0.829-3.881-1.484-6.945-0.781-9.913
    c0.51-2.199,11.366-4.554,16.003-5.562c6.518-1.417,13.26-2.879,17.668-5.555c5.961-3.611,9.189-10.27,12.036-16.146
    c2.061-4.247,4.19-8.642,6.723-10.084c0.143-0.086,0.361-0.181,0.777-0.181c4.746,0,14.704,9.975,20.442,18.907
    c1.455,2.249,4.151,6.76,7.27,11.984c9.329,15.609,22.102,36.987,28.773,44.151C181.933,446.123,191.664,458.508,189.271,469.128z
     M327.787,360.037c-2.145,10.243-2.372,43.003-2.396,50.366c-4.375,5.558-26.498,31.732-58.261,36.438
    c-12.938,1.88-25.019,2.834-35.907,2.834c-9.307,0-15.246-0.719-17.712-1.091l-15.961-18.263
    c6.292-3.109,12.584-9.666,10.927-21.497c-1.42-10.005-14.291-19.928-29.196-31.419c-12.187-9.394-26.001-20.042-29.807-29.062
    c-7.865-18.602-1.665-51.315,9.144-68.159c5.342-8.434,9.705-21.225,13.925-33.592c4.556-13.356,9.268-27.166,14.538-33.21
    c8.345-9.438,16.057-27.801,17.423-42.273c7.814,7.458,19.936,16.926,31.135,16.926c1.724,0,3.398-0.225,4.997-0.677
    c7.662-2.213,18.931-8.724,29.829-15.019c9.396-5.429,20.982-12.124,25.342-12.733c7.475,10.734,50.912,106.858,55.35,137.727
    c3.512,24.425-0.198,44.616-2.063,52.525c-1.501-0.206-3.29-0.371-5.17-0.371C331.824,349.488,328.621,356.092,327.787,360.037z
     M449.194,431.621c-2.533,2.315-11.449,6.869-20.071,11.271c-15.295,7.808-32.631,16.661-40.416,24.85
    c-10.962,11.536-23.361,19.285-30.848,19.285c-0.901,0-1.722-0.114-2.453-0.346c-8.128-2.533-14.821-14.266-11.224-30.997
    c3.789-17.093,8.153-40.341,7.447-54.049c-0.163-3.112-0.438-6.502-0.705-9.78c-0.499-6.127-1.239-15.233-0.475-17.935
    c0.151-0.071,0.319-0.131,0.505-0.183c0.032,7.836,1.734,23.467,14.234,28.917c3.725,1.625,7.982,2.448,12.652,2.448
    c12.521,0,26.414-6.141,32.105-11.833c3.351-3.349,6.169-7.45,8.143-10.697c0.431,1.264,0.697,2.916,0.557,5.044
    c-0.744,11.558,4.873,26.891,15.563,32.542l1.556,0.819c3.807,1.996,13.92,7.307,14.083,9.824
    C449.842,430.801,449.758,431.097,449.194,431.621z"/>
<g>
</g>
<g>
</g>
<g>
</g>
<g>
</g>
<g>
</g>
<g>
</g>
<g>
</g>
<g>
</g>
<g>
</g>
<g>
</g>
<g>
</g>
<g>
</g>
<g>
</g>
<g>
</g>
<g>
</g>
</svg>

  </symbol>
</svg>
